<?xml version="1.0" encoding="utf-8"?>
<!-- Generator: Adobe Illustrator 25.0.0, SVG Export Plug-In . SVG Version: 6.00 Build 0)  -->
<svg version="1.1" id="Layer_1" xmlns="http://www.w3.org/2000/svg" xmlns:xlink="http://www.w3.org/1999/xlink" x="0px" y="0px"
	 viewBox="0 0 1235 650" style="enable-background:new 0 0 1235 650;" xml:space="preserve">
<style type="text/css">
	.st0{fill:#FFFFFF;}
	.st1{fill:#BF0A30;}
	.st2{fill:#002868;}
	.st3{fill-rule:evenodd;clip-rule:evenodd;fill:#FFCC00;}
	.st4{fill-rule:evenodd;clip-rule:evenodd;fill:#FF0000;}
	.st5{fill-rule:evenodd;clip-rule:evenodd;}
</style>
<path class="st0" d="M0,0h1235v650H0V0z"/>
<g>
	<path id="a" class="st1" d="M0,0h1235v50H0V0z"/>
</g>
<g>
	<path id="a_1_" class="st1" d="M0,100h1235v50H0V100z"/>
</g>
<g>
	<path id="a_2_" class="st1" d="M0,200h1235v50H0V200z"/>
</g>
<g>
	<path id="a_3_" class="st1" d="M0,300h1235v50H0V300z"/>
</g>
<g>
	<path id="a_4_" class="st1" d="M0,400h1235v50H0V400z"/>
</g>
<g>
	<path id="a_5_" class="st1" d="M0,500h1235v50H0V500z"/>
</g>
<g>
	<path id="a_6_" class="st1" d="M0,600h1235v50H0V600z"/>
</g>
<path class="st2" d="M0,0h494v350H0V0z"/>
<g transform="matrix(650,0,0,650,247,175)">
	<g id="g">
		<g>
			<g id="f">
				<g>
					<g id="d">
						<g>
							<g id="e">
								<g>
									<g id="b">
										<g transform="rotate(216)">
											<path id="c" class="st0" d="M47.5,38.4l-17,12.4l6.5-20L47.5,38.4z"/>
										</g>
										<g transform="rotate(288)">
											<path id="c_1_" class="st0" d="M40.2,40.8l-17-12.4l21.1,0L40.2,40.8z"/>
										</g>
										<g>
											<path id="c_2_" class="st0" d="M35.7,34.6l6.5-20l6.5,20H35.7z"/>
										</g>
										<g transform="rotate(72)">
											<path id="c_3_" class="st0" d="M40.2,28.4l21.1,0l-17,12.4L40.2,28.4z"/>
										</g>
										<g transform="rotate(144)">
											<path id="c_4_" class="st0" d="M47.5,30.8l6.5,20L37,38.4L47.5,30.8z"/>
										</g>
									</g>
								</g>
								<g>
									<g id="b_1_">
										<g transform="rotate(216)">
											<path id="c_5_" class="st0" d="M129.4,38.4l-17,12.4l6.5-20L129.4,38.4z"/>
										</g>
										<g transform="rotate(288)">
											<path id="c_6_" class="st0" d="M122.1,40.8l-17-12.4l21.1,0L122.1,40.8z"/>
										</g>
										<g>
											<path id="c_7_" class="st0" d="M117.6,34.6l6.5-20l6.5,20H117.6z"/>
										</g>
										<g transform="rotate(72)">
											<path id="c_8_" class="st0" d="M122.1,28.4l21.1,0l-17,12.4L122.1,28.4z"/>
										</g>
										<g transform="rotate(144)">
											<path id="c_9_" class="st0" d="M129.4,30.8l6.5,20l-17-12.4L129.4,30.8z"/>
										</g>
									</g>
								</g>
								<g>
									<g id="b_2_">
										<g transform="rotate(216)">
											<path id="c_10_" class="st0" d="M211.3,38.4l-17,12.4l6.5-20L211.3,38.4z"/>
										</g>
										<g transform="rotate(288)">
											<path id="c_11_" class="st0" d="M204,40.8l-17-12.4l21.1,0L204,40.8z"/>
										</g>
										<g>
											<path id="c_12_" class="st0" d="M199.5,34.6l6.5-20l6.5,20H199.5z"/>
										</g>
										<g transform="rotate(72)">
											<path id="c_13_" class="st0" d="M204,28.4l21.1,0l-17,12.4L204,28.4z"/>
										</g>
										<g transform="rotate(144)">
											<path id="c_14_" class="st0" d="M211.3,30.8l6.5,20l-17-12.4L211.3,30.8z"/>
										</g>
									</g>
								</g>
								<g>
									<g id="b_3_">
										<g transform="rotate(216)">
											<path id="c_15_" class="st0" d="M293.2,38.4l-17,12.4l6.5-20L293.2,38.4z"/>
										</g>
										<g transform="rotate(288)">
											<path id="c_16_" class="st0" d="M285.9,40.8l-17-12.4l21.1,0L285.9,40.8z"/>
										</g>
										<g>
											<path id="c_17_" class="st0" d="M281.4,34.6l6.5-20l6.5,20H281.4z"/>
										</g>
										<g transform="rotate(72)">
											<path id="c_18_" class="st0" d="M285.9,28.4l21.1,0l-17,12.4L285.9,28.4z"/>
										</g>
										<g transform="rotate(144)">
											<path id="c_19_" class="st0" d="M293.2,30.8l6.5,20l-17-12.4L293.2,30.8z"/>
										</g>
									</g>
								</g>
								<g>
									<g id="b_4_">
										<g transform="rotate(216)">
											<path id="c_20_" class="st0" d="M375.1,38.4l-17,12.4l6.5-20L375.1,38.4z"/>
										</g>
										<g transform="rotate(288)">
											<path id="c_21_" class="st0" d="M367.8,40.8l-17-12.4l21.1,0L367.8,40.8z"/>
										</g>
										<g>
											<path id="c_22_" class="st0" d="M363.3,34.6l6.5-20l6.5,20H363.3z"/>
										</g>
										<g transform="rotate(72)">
											<path id="c_23_" class="st0" d="M367.8,28.4l21.1,0l-17,12.4L367.8,28.4z"/>
										</g>
										<g transform="rotate(144)">
											<path id="c_24_" class="st0" d="M375.1,30.8l6.5,20l-17-12.4L375.1,30.8z"/>
										</g>
									</g>
								</g>
							</g>
						</g>
						<g>
							<g id="b_5_">
								<g transform="rotate(216)">
									<path id="c_25_" class="st0" d="M457,38.4l-17,12.4l6.5-20L457,38.4z"/>
								</g>
								<g transform="rotate(288)">
									<path id="c_26_" class="st0" d="M449.7,40.8l-17-12.4l21.1,0L449.7,40.8z"/>
								</g>
								<g>
									<path id="c_27_" class="st0" d="M445.2,34.6l6.5-20l6.5,20H445.2z"/>
								</g>
								<g transform="rotate(72)">
									<path id="c_28_" class="st0" d="M449.7,28.4l21.1,0l-17,12.4L449.7,28.4z"/>
								</g>
								<g transform="rotate(144)">
									<path id="c_29_" class="st0" d="M457,30.8l6.5,20l-17-12.4L457,30.8z"/>
								</g>
							</g>
						</g>
					</g>
				</g>
				<g>
					<g id="e_1_">
						<g>
							<g id="b_6_">
								<g transform="rotate(216)">
									<path id="c_30_" class="st0" d="M88.5,73.5l-17,12.4l6.5-20L88.5,73.5z"/>
								</g>
								<g transform="rotate(288)">
									<path id="c_31_" class="st0" d="M81.2,75.9l-17-12.4l21.1,0L81.2,75.9z"/>
								</g>
								<g>
									<path id="c_32_" class="st0" d="M76.7,69.7l6.5-20l6.5,20H76.7z"/>
								</g>
								<g transform="rotate(72)">
									<path id="c_33_" class="st0" d="M81.2,63.5l21.1,0l-17,12.4L81.2,63.5z"/>
								</g>
								<g transform="rotate(144)">
									<path id="c_34_" class="st0" d="M88.5,65.9l6.5,20l-17-12.4L88.5,65.9z"/>
								</g>
							</g>
						</g>
						<g>
							<g id="b_7_">
								<g transform="rotate(216)">
									<path id="c_35_" class="st0" d="M170.4,73.5l-17,12.4l6.5-20L170.4,73.5z"/>
								</g>
								<g transform="rotate(288)">
									<path id="c_36_" class="st0" d="M163.1,75.9l-17-12.4l21.1,0L163.1,75.9z"/>
								</g>
								<g>
									<path id="c_37_" class="st0" d="M158.6,69.7l6.5-20l6.5,20H158.6z"/>
								</g>
								<g transform="rotate(72)">
									<path id="c_38_" class="st0" d="M163.1,63.5l21.1,0l-17,12.4L163.1,63.5z"/>
								</g>
								<g transform="rotate(144)">
									<path id="c_39_" class="st0" d="M170.4,65.9l6.5,20l-17-12.4L170.4,65.9z"/>
								</g>
							</g>
						</g>
						<g>
							<g id="b_8_">
								<g transform="rotate(216)">
									<path id="c_40_" class="st0" d="M252.3,73.5l-17,12.4l6.5-20L252.3,73.5z"/>
								</g>
								<g transform="rotate(288)">
									<path id="c_41_" class="st0" d="M245,75.9l-17-12.4l21.1,0L245,75.9z"/>
								</g>
								<g>
									<path id="c_42_" class="st0" d="M240.5,69.7l6.5-20l6.5,20H240.5z"/>
								</g>
								<g transform="rotate(72)">
									<path id="c_43_" class="st0" d="M245,63.5l21.1,0l-17,12.4L245,63.5z"/>
								</g>
								<g transform="rotate(144)">
									<path id="c_44_" class="st0" d="M252.3,65.9l6.5,20l-17-12.4L252.3,65.9z"/>
								</g>
							</g>
						</g>
						<g>
							<g id="b_9_">
								<g transform="rotate(216)">
									<path id="c_45_" class="st0" d="M334.2,73.5l-17,12.4l6.5-20L334.2,73.5z"/>
								</g>
								<g transform="rotate(288)">
									<path id="c_46_" class="st0" d="M326.9,75.9l-17-12.4l21.1,0L326.9,75.9z"/>
								</g>
								<g>
									<path id="c_47_" class="st0" d="M322.4,69.7l6.5-20l6.5,20H322.4z"/>
								</g>
								<g transform="rotate(72)">
									<path id="c_48_" class="st0" d="M326.9,63.5l21.1,0l-17,12.4L326.9,63.5z"/>
								</g>
								<g transform="rotate(144)">
									<path id="c_49_" class="st0" d="M334.2,65.9l6.5,20l-17-12.4L334.2,65.9z"/>
								</g>
							</g>
						</g>
						<g>
							<g id="b_10_">
								<g transform="rotate(216)">
									<path id="c_50_" class="st0" d="M416.1,73.5l-17,12.4l6.5-20L416.1,73.5z"/>
								</g>
								<g transform="rotate(288)">
									<path id="c_51_" class="st0" d="M408.8,75.9l-17-12.4l21.1,0L408.8,75.9z"/>
								</g>
								<g>
									<path id="c_52_" class="st0" d="M404.3,69.7l6.5-20l6.5,20H404.3z"/>
								</g>
								<g transform="rotate(72)">
									<path id="c_53_" class="st0" d="M408.8,63.5l21.1,0l-17,12.4L408.8,63.5z"/>
								</g>
								<g transform="rotate(144)">
									<path id="c_54_" class="st0" d="M416.1,65.9l6.5,20l-17-12.4L416.1,65.9z"/>
								</g>
							</g>
						</g>
					</g>
				</g>
				<g>
					<g id="d_1_">
						<g>
							<g id="e_2_">
								<g>
									<g id="b_11_">
										<g transform="rotate(216)">
											<path id="c_55_" class="st0" d="M47.5,108.6l-17,12.4l6.5-20L47.5,108.6z"/>
										</g>
										<g transform="rotate(288)">
											<path id="c_56_" class="st0" d="M40.2,111l-17-12.4l21.1,0L40.2,111z"/>
										</g>
										<g>
											<path id="c_57_" class="st0" d="M35.7,104.8l6.5-20l6.5,20H35.7z"/>
										</g>
										<g transform="rotate(72)">
											<path id="c_58_" class="st0" d="M40.2,98.6l21.1,0l-17,12.4L40.2,98.6z"/>
										</g>
										<g transform="rotate(144)">
											<path id="c_59_" class="st0" d="M47.5,101l6.5,20l-17-12.4L47.5,101z"/>
										</g>
									</g>
								</g>
								<g>
									<g id="b_12_">
										<g transform="rotate(216)">
											<path id="c_60_" class="st0" d="M129.4,108.6l-17,12.4l6.5-20L129.4,108.6z"/>
										</g>
										<g transform="rotate(288)">
											<path id="c_61_" class="st0" d="M122.1,111l-17-12.4l21.1,0L122.1,111z"/>
										</g>
										<g>
											<path id="c_62_" class="st0" d="M117.6,104.8l6.5-20l6.5,20H117.6z"/>
										</g>
										<g transform="rotate(72)">
											<path id="c_63_" class="st0" d="M122.1,98.6l21.1,0l-17,12.4L122.1,98.6z"/>
										</g>
										<g transform="rotate(144)">
											<path id="c_64_" class="st0" d="M129.4,101l6.5,20l-17-12.4L129.4,101z"/>
										</g>
									</g>
								</g>
								<g>
									<g id="b_13_">
										<g transform="rotate(216)">
											<path id="c_65_" class="st0" d="M211.3,108.6l-17,12.4l6.5-20L211.3,108.6z"/>
										</g>
										<g transform="rotate(288)">
											<path id="c_66_" class="st0" d="M204,111l-17-12.4l21.1,0L204,111z"/>
										</g>
										<g>
											<path id="c_67_" class="st0" d="M199.5,104.8l6.5-20l6.5,20H199.5z"/>
										</g>
										<g transform="rotate(72)">
											<path id="c_68_" class="st0" d="M204,98.6l21.1,0l-17,12.4L204,98.6z"/>
										</g>
										<g transform="rotate(144)">
											<path id="c_69_" class="st0" d="M211.3,101l6.5,20l-17-12.4L211.3,101z"/>
										</g>
									</g>
								</g>
								<g>
									<g id="b_14_">
										<g transform="rotate(216)">
											<path id="c_70_" class="st0" d="M293.2,108.6l-17,12.4l6.5-20L293.2,108.6z"/>
										</g>
										<g transform="rotate(288)">
											<path id="c_71_" class="st0" d="M285.9,111l-17-12.4l21.1,0L285.9,111z"/>
										</g>
										<g>
											<path id="c_72_" class="st0" d="M281.4,104.8l6.5-20l6.5,20H281.4z"/>
										</g>
										<g transform="rotate(72)">
											<path id="c_73_" class="st0" d="M285.9,98.6l21.1,0L290,111L285.9,98.6z"/>
										</g>
										<g transform="rotate(144)">
											<path id="c_74_" class="st0" d="M293.2,101l6.5,20l-17-12.4L293.2,101z"/>
										</g>
									</g>
								</g>
								<g>
									<g id="b_15_">
										<g transform="rotate(216)">
											<path id="c_75_" class="st0" d="M375.1,108.6l-17,12.4l6.5-20L375.1,108.6z"/>
										</g>
										<g transform="rotate(288)">
											<path id="c_76_" class="st0" d="M367.8,111l-17-12.4l21.1,0L367.8,111z"/>
										</g>
										<g>
											<path id="c_77_" class="st0" d="M363.3,104.8l6.5-20l6.5,20H363.3z"/>
										</g>
										<g transform="rotate(72)">
											<path id="c_78_" class="st0" d="M367.8,98.6l21.1,0l-17,12.4L367.8,98.6z"/>
										</g>
										<g transform="rotate(144)">
											<path id="c_79_" class="st0" d="M375.1,101l6.5,20l-17-12.4L375.1,101z"/>
										</g>
									</g>
								</g>
							</g>
						</g>
						<g>
							<g id="b_16_">
								<g transform="rotate(216)">
									<path id="c_80_" class="st0" d="M457,108.6L440,121l6.5-20L457,108.6z"/>
								</g>
								<g transform="rotate(288)">
									<path id="c_81_" class="st0" d="M449.7,111l-17-12.4l21.1,0L449.7,111z"/>
								</g>
								<g>
									<path id="c_82_" class="st0" d="M445.2,104.8l6.5-20l6.5,20H445.2z"/>
								</g>
								<g transform="rotate(72)">
									<path id="c_83_" class="st0" d="M449.7,98.6l21.1,0l-17,12.4L449.7,98.6z"/>
								</g>
								<g transform="rotate(144)">
									<path id="c_84_" class="st0" d="M457,101l6.5,20l-17-12.4L457,101z"/>
								</g>
							</g>
						</g>
					</g>
				</g>
				<g>
					<g id="e_3_">
						<g>
							<g id="b_17_">
								<g transform="rotate(216)">
									<path id="c_85_" class="st0" d="M88.5,143.7l-17,12.4l6.5-20L88.5,143.7z"/>
								</g>
								<g transform="rotate(288)">
									<path id="c_86_" class="st0" d="M81.2,146.1l-17-12.4h21.1L81.2,146.1z"/>
								</g>
								<g>
									<path id="c_87_" class="st0" d="M76.7,139.9l6.5-20l6.5,20H76.7z"/>
								</g>
								<g transform="rotate(72)">
									<path id="c_88_" class="st0" d="M81.2,133.7h21.1l-17,12.4L81.2,133.7z"/>
								</g>
								<g transform="rotate(144)">
									<path id="c_89_" class="st0" d="M88.5,136.1l6.5,20l-17-12.4L88.5,136.1z"/>
								</g>
							</g>
						</g>
						<g>
							<g id="b_18_">
								<g transform="rotate(216)">
									<path id="c_90_" class="st0" d="M170.4,143.7l-17,12.4l6.5-20L170.4,143.7z"/>
								</g>
								<g transform="rotate(288)">
									<path id="c_91_" class="st0" d="M163.1,146.1l-17-12.4h21.1L163.1,146.1z"/>
								</g>
								<g>
									<path id="c_92_" class="st0" d="M158.6,139.9l6.5-20l6.5,20H158.6z"/>
								</g>
								<g transform="rotate(72)">
									<path id="c_93_" class="st0" d="M163.1,133.7h21.1l-17,12.4L163.1,133.7z"/>
								</g>
								<g transform="rotate(144)">
									<path id="c_94_" class="st0" d="M170.4,136.1l6.5,20l-17-12.4L170.4,136.1z"/>
								</g>
							</g>
						</g>
						<g>
							<g id="b_19_">
								<g transform="rotate(216)">
									<path id="c_95_" class="st0" d="M252.3,143.7l-17,12.4l6.5-20L252.3,143.7z"/>
								</g>
								<g transform="rotate(288)">
									<path id="c_96_" class="st0" d="M245,146.1l-17-12.4H249L245,146.1z"/>
								</g>
								<g>
									<path id="c_97_" class="st0" d="M240.5,139.9l6.5-20l6.5,20H240.5z"/>
								</g>
								<g transform="rotate(72)">
									<path id="c_98_" class="st0" d="M245,133.7H266l-17,12.4L245,133.7z"/>
								</g>
								<g transform="rotate(144)">
									<path id="c_99_" class="st0" d="M252.3,136.1l6.5,20l-17-12.4L252.3,136.1z"/>
								</g>
							</g>
						</g>
						<g>
							<g id="b_20_">
								<g transform="rotate(216)">
									<path id="c_100_" class="st0" d="M334.2,143.7l-17,12.4l6.5-20L334.2,143.7z"/>
								</g>
								<g transform="rotate(288)">
									<path id="c_101_" class="st0" d="M326.9,146.1l-17-12.4h21.1L326.9,146.1z"/>
								</g>
								<g>
									<path id="c_102_" class="st0" d="M322.4,139.9l6.5-20l6.5,20H322.4z"/>
								</g>
								<g transform="rotate(72)">
									<path id="c_103_" class="st0" d="M326.9,133.7h21.1l-17,12.4L326.9,133.7z"/>
								</g>
								<g transform="rotate(144)">
									<path id="c_104_" class="st0" d="M334.2,136.1l6.5,20l-17-12.4L334.2,136.1z"/>
								</g>
							</g>
						</g>
						<g>
							<g id="b_21_">
								<g transform="rotate(216)">
									<path id="c_105_" class="st0" d="M416.1,143.7l-17,12.4l6.5-20L416.1,143.7z"/>
								</g>
								<g transform="rotate(288)">
									<path id="c_106_" class="st0" d="M408.8,146.1l-17-12.4h21.1L408.8,146.1z"/>
								</g>
								<g>
									<path id="c_107_" class="st0" d="M404.3,139.9l6.5-20l6.5,20H404.3z"/>
								</g>
								<g transform="rotate(72)">
									<path id="c_108_" class="st0" d="M408.8,133.7h21.1l-17,12.4L408.8,133.7z"/>
								</g>
								<g transform="rotate(144)">
									<path id="c_109_" class="st0" d="M416.1,136.1l6.5,20l-17-12.4L416.1,136.1z"/>
								</g>
							</g>
						</g>
					</g>
				</g>
			</g>
		</g>
		<g>
			<g id="f_1_">
				<g>
					<g id="d_2_">
						<g>
							<g id="e_4_">
								<g>
									<g id="b_22_">
										<g transform="rotate(216)">
											<path id="c_110_" class="st0" d="M47.5,178.8l-17,12.4l6.5-20L47.5,178.8z"/>
										</g>
										<g transform="rotate(288)">
											<path id="c_111_" class="st0" d="M40.2,181.2l-17-12.4h21.1L40.2,181.2z"/>
										</g>
										<g>
											<path id="c_112_" class="st0" d="M35.7,175l6.5-20l6.5,20H35.7z"/>
										</g>
										<g transform="rotate(72)">
											<path id="c_113_" class="st0" d="M40.2,168.8h21.1l-17,12.4L40.2,168.8z"/>
										</g>
										<g transform="rotate(144)">
											<path id="c_114_" class="st0" d="M47.5,171.2l6.5,20l-17-12.4L47.5,171.2z"/>
										</g>
									</g>
								</g>
								<g>
									<g id="b_23_">
										<g transform="rotate(216)">
											<path id="c_115_" class="st0" d="M129.4,178.8l-17,12.4l6.5-20L129.4,178.8z"/>
										</g>
										<g transform="rotate(288)">
											<path id="c_116_" class="st0" d="M122.1,181.2l-17-12.4h21.1L122.1,181.2z"/>
										</g>
										<g>
											<path id="c_117_" class="st0" d="M117.6,175l6.5-20l6.5,20H117.6z"/>
										</g>
										<g transform="rotate(72)">
											<path id="c_118_" class="st0" d="M122.1,168.8h21.1l-17,12.4L122.1,168.8z"/>
										</g>
										<g transform="rotate(144)">
											<path id="c_119_" class="st0" d="M129.4,171.2l6.5,20l-17-12.4L129.4,171.2z"/>
										</g>
									</g>
								</g>
								<g>
									<g id="b_24_">
										<g transform="rotate(216)">
											<path id="c_120_" class="st0" d="M211.3,178.8l-17,12.4l6.5-20L211.3,178.8z"/>
										</g>
										<g transform="rotate(288)">
											<path id="c_121_" class="st0" d="M204,181.2l-17-12.4h21.1L204,181.2z"/>
										</g>
										<g>
											<path id="c_122_" class="st0" d="M199.5,175l6.5-20l6.5,20H199.5z"/>
										</g>
										<g transform="rotate(72)">
											<path id="c_123_" class="st0" d="M204,168.8h21.1l-17,12.4L204,168.8z"/>
										</g>
										<g transform="rotate(144)">
											<path id="c_124_" class="st0" d="M211.3,171.2l6.5,20l-17-12.4L211.3,171.2z"/>
										</g>
									</g>
								</g>
								<g>
									<g id="b_25_">
										<g transform="rotate(216)">
											<path id="c_125_" class="st0" d="M293.2,178.8l-17,12.4l6.5-20L293.2,178.8z"/>
										</g>
										<g transform="rotate(288)">
											<path id="c_126_" class="st0" d="M285.9,181.2l-17-12.4H290L285.9,181.2z"/>
										</g>
										<g>
											<path id="c_127_" class="st0" d="M281.4,175l6.5-20l6.5,20H281.4z"/>
										</g>
										<g transform="rotate(72)">
											<path id="c_128_" class="st0" d="M285.9,168.8H307l-17,12.4L285.9,168.8z"/>
										</g>
										<g transform="rotate(144)">
											<path id="c_129_" class="st0" d="M293.2,171.2l6.5,20l-17-12.4L293.2,171.2z"/>
										</g>
									</g>
								</g>
								<g>
									<g id="b_26_">
										<g transform="rotate(216)">
											<path id="c_130_" class="st0" d="M375.1,178.8l-17,12.4l6.5-20L375.1,178.8z"/>
										</g>
										<g transform="rotate(288)">
											<path id="c_131_" class="st0" d="M367.8,181.2l-17-12.4h21.1L367.8,181.2z"/>
										</g>
										<g>
											<path id="c_132_" class="st0" d="M363.3,175l6.5-20l6.5,20H363.3z"/>
										</g>
										<g transform="rotate(72)">
											<path id="c_133_" class="st0" d="M367.8,168.8h21.1l-17,12.4L367.8,168.8z"/>
										</g>
										<g transform="rotate(144)">
											<path id="c_134_" class="st0" d="M375.1,171.2l6.5,20l-17-12.4L375.1,171.2z"/>
										</g>
									</g>
								</g>
							</g>
						</g>
						<g>
							<g id="b_27_">
								<g transform="rotate(216)">
									<path id="c_135_" class="st0" d="M457,178.8l-17,12.4l6.5-20L457,178.8z"/>
								</g>
								<g transform="rotate(288)">
									<path id="c_136_" class="st0" d="M449.7,181.2l-17-12.4h21.1L449.7,181.2z"/>
								</g>
								<g>
									<path id="c_137_" class="st0" d="M445.2,175l6.5-20l6.5,20H445.2z"/>
								</g>
								<g transform="rotate(72)">
									<path id="c_138_" class="st0" d="M449.7,168.8h21.1l-17,12.4L449.7,168.8z"/>
								</g>
								<g transform="rotate(144)">
									<path id="c_139_" class="st0" d="M457,171.2l6.5,20l-17-12.4L457,171.2z"/>
								</g>
							</g>
						</g>
					</g>
				</g>
				<g>
					<g id="e_5_">
						<g>
							<g id="b_28_">
								<g transform="rotate(216)">
									<path id="c_140_" class="st0" d="M88.5,213.9l-17,12.4l6.5-20L88.5,213.9z"/>
								</g>
								<g transform="rotate(288)">
									<path id="c_141_" class="st0" d="M81.2,216.3l-17-12.4l21.1,0L81.2,216.3z"/>
								</g>
								<g>
									<path id="c_142_" class="st0" d="M76.7,210.1l6.5-20l6.5,20H76.7z"/>
								</g>
								<g transform="rotate(72)">
									<path id="c_143_" class="st0" d="M81.2,203.9l21.1,0l-17,12.4L81.2,203.9z"/>
								</g>
								<g transform="rotate(144)">
									<path id="c_144_" class="st0" d="M88.5,206.3l6.5,20l-17-12.4L88.5,206.3z"/>
								</g>
							</g>
						</g>
						<g>
							<g id="b_29_">
								<g transform="rotate(216)">
									<path id="c_145_" class="st0" d="M170.4,213.9l-17,12.4l6.5-20L170.4,213.9z"/>
								</g>
								<g transform="rotate(288)">
									<path id="c_146_" class="st0" d="M163.1,216.3l-17-12.4l21.1,0L163.1,216.3z"/>
								</g>
								<g>
									<path id="c_147_" class="st0" d="M158.6,210.1l6.5-20l6.5,20H158.6z"/>
								</g>
								<g transform="rotate(72)">
									<path id="c_148_" class="st0" d="M163.1,203.9l21.1,0l-17,12.4L163.1,203.9z"/>
								</g>
								<g transform="rotate(144)">
									<path id="c_149_" class="st0" d="M170.4,206.3l6.5,20l-17-12.4L170.4,206.3z"/>
								</g>
							</g>
						</g>
						<g>
							<g id="b_30_">
								<g transform="rotate(216)">
									<path id="c_150_" class="st0" d="M252.3,213.9l-17,12.4l6.5-20L252.3,213.9z"/>
								</g>
								<g transform="rotate(288)">
									<path id="c_151_" class="st0" d="M245,216.3l-17-12.4l21.1,0L245,216.3z"/>
								</g>
								<g>
									<path id="c_152_" class="st0" d="M240.5,210.1l6.5-20l6.5,20H240.5z"/>
								</g>
								<g transform="rotate(72)">
									<path id="c_153_" class="st0" d="M245,203.9l21.1,0l-17,12.4L245,203.9z"/>
								</g>
								<g transform="rotate(144)">
									<path id="c_154_" class="st0" d="M252.3,206.3l6.5,20l-17-12.4L252.3,206.3z"/>
								</g>
							</g>
						</g>
						<g>
							<g id="b_31_">
								<g transform="rotate(216)">
									<path id="c_155_" class="st0" d="M334.2,213.9l-17,12.4l6.5-20L334.2,213.9z"/>
								</g>
								<g transform="rotate(288)">
									<path id="c_156_" class="st0" d="M326.9,216.3l-17-12.4l21.1,0L326.9,216.3z"/>
								</g>
								<g>
									<path id="c_157_" class="st0" d="M322.4,210.1l6.5-20l6.5,20H322.4z"/>
								</g>
								<g transform="rotate(72)">
									<path id="c_158_" class="st0" d="M326.9,203.9l21.1,0l-17,12.4L326.9,203.9z"/>
								</g>
								<g transform="rotate(144)">
									<path id="c_159_" class="st0" d="M334.2,206.3l6.5,20l-17-12.4L334.2,206.3z"/>
								</g>
							</g>
						</g>
						<g>
							<g id="b_32_">
								<g transform="rotate(216)">
									<path id="c_160_" class="st0" d="M416.1,213.9l-17,12.4l6.5-20L416.1,213.9z"/>
								</g>
								<g transform="rotate(288)">
									<path id="c_161_" class="st0" d="M408.8,216.3l-17-12.4l21.1,0L408.8,216.3z"/>
								</g>
								<g>
									<path id="c_162_" class="st0" d="M404.3,210.1l6.5-20l6.5,20H404.3z"/>
								</g>
								<g transform="rotate(72)">
									<path id="c_163_" class="st0" d="M408.8,203.9l21.1,0l-17,12.4L408.8,203.9z"/>
								</g>
								<g transform="rotate(144)">
									<path id="c_164_" class="st0" d="M416.1,206.3l6.5,20l-17-12.4L416.1,206.3z"/>
								</g>
							</g>
						</g>
					</g>
				</g>
				<g>
					<g id="d_3_">
						<g>
							<g id="e_6_">
								<g>
									<g id="b_33_">
										<g transform="rotate(216)">
											<path id="c_165_" class="st0" d="M47.5,249l-17,12.4l6.5-20L47.5,249z"/>
										</g>
										<g transform="rotate(288)">
											<path id="c_166_" class="st0" d="M40.2,251.4l-17-12.4l21.1,0L40.2,251.4z"/>
										</g>
										<g>
											<path id="c_167_" class="st0" d="M35.7,245.2l6.5-20l6.5,20H35.7z"/>
										</g>
										<g transform="rotate(72)">
											<path id="c_168_" class="st0" d="M40.2,239l21.1,0l-17,12.4L40.2,239z"/>
										</g>
										<g transform="rotate(144)">
											<path id="c_169_" class="st0" d="M47.5,241.4l6.5,20L37,249L47.5,241.4z"/>
										</g>
									</g>
								</g>
								<g>
									<g id="b_34_">
										<g transform="rotate(216)">
											<path id="c_170_" class="st0" d="M129.4,249l-17,12.4l6.5-20L129.4,249z"/>
										</g>
										<g transform="rotate(288)">
											<path id="c_171_" class="st0" d="M122.1,251.4l-17-12.4l21.1,0L122.1,251.4z"/>
										</g>
										<g>
											<path id="c_172_" class="st0" d="M117.6,245.2l6.5-20l6.5,20H117.6z"/>
										</g>
										<g transform="rotate(72)">
											<path id="c_173_" class="st0" d="M122.1,239l21.1,0l-17,12.4L122.1,239z"/>
										</g>
										<g transform="rotate(144)">
											<path id="c_174_" class="st0" d="M129.4,241.4l6.5,20l-17-12.4L129.4,241.4z"/>
										</g>
									</g>
								</g>
								<g>
									<g id="b_35_">
										<g transform="rotate(216)">
											<path id="c_175_" class="st0" d="M211.3,249l-17,12.4l6.5-20L211.3,249z"/>
										</g>
										<g transform="rotate(288)">
											<path id="c_176_" class="st0" d="M204,251.4L187,239l21.1,0L204,251.4z"/>
										</g>
										<g>
											<path id="c_177_" class="st0" d="M199.5,245.2l6.5-20l6.5,20H199.5z"/>
										</g>
										<g transform="rotate(72)">
											<path id="c_178_" class="st0" d="M204,239l21.1,0l-17,12.4L204,239z"/>
										</g>
										<g transform="rotate(144)">
											<path id="c_179_" class="st0" d="M211.3,241.4l6.5,20l-17-12.4L211.3,241.4z"/>
										</g>
									</g>
								</g>
								<g>
									<g id="b_36_">
										<g transform="rotate(216)">
											<path id="c_180_" class="st0" d="M293.2,249l-17,12.4l6.5-20L293.2,249z"/>
										</g>
										<g transform="rotate(288)">
											<path id="c_181_" class="st0" d="M285.9,251.4l-17-12.4l21.1,0L285.9,251.4z"/>
										</g>
										<g>
											<path id="c_182_" class="st0" d="M281.4,245.2l6.5-20l6.5,20H281.4z"/>
										</g>
										<g transform="rotate(72)">
											<path id="c_183_" class="st0" d="M285.9,239l21.1,0l-17,12.4L285.9,239z"/>
										</g>
										<g transform="rotate(144)">
											<path id="c_184_" class="st0" d="M293.2,241.4l6.5,20l-17-12.4L293.2,241.4z"/>
										</g>
									</g>
								</g>
								<g>
									<g id="b_37_">
										<g transform="rotate(216)">
											<path id="c_185_" class="st0" d="M375.1,249l-17,12.4l6.5-20L375.1,249z"/>
										</g>
										<g transform="rotate(288)">
											<path id="c_186_" class="st0" d="M367.8,251.4l-17-12.4l21.1,0L367.8,251.4z"/>
										</g>
										<g>
											<path id="c_187_" class="st0" d="M363.3,245.2l6.5-20l6.5,20H363.3z"/>
										</g>
										<g transform="rotate(72)">
											<path id="c_188_" class="st0" d="M367.8,239l21.1,0l-17,12.4L367.8,239z"/>
										</g>
										<g transform="rotate(144)">
											<path id="c_189_" class="st0" d="M375.1,241.4l6.5,20l-17-12.4L375.1,241.4z"/>
										</g>
									</g>
								</g>
							</g>
						</g>
						<g>
							<g id="b_38_">
								<g transform="rotate(216)">
									<path id="c_190_" class="st0" d="M457,249l-17,12.4l6.5-20L457,249z"/>
								</g>
								<g transform="rotate(288)">
									<path id="c_191_" class="st0" d="M449.7,251.4l-17-12.4l21.1,0L449.7,251.4z"/>
								</g>
								<g>
									<path id="c_192_" class="st0" d="M445.2,245.2l6.5-20l6.5,20H445.2z"/>
								</g>
								<g transform="rotate(72)">
									<path id="c_193_" class="st0" d="M449.7,239l21.1,0l-17,12.4L449.7,239z"/>
								</g>
								<g transform="rotate(144)">
									<path id="c_194_" class="st0" d="M457,241.4l6.5,20l-17-12.4L457,241.4z"/>
								</g>
							</g>
						</g>
					</g>
				</g>
				<g>
					<g id="e_7_">
						<g>
							<g id="b_39_">
								<g transform="rotate(216)">
									<path id="c_195_" class="st0" d="M88.5,284.1l-17,12.4l6.5-20L88.5,284.1z"/>
								</g>
								<g transform="rotate(288)">
									<path id="c_196_" class="st0" d="M81.2,286.5l-17-12.4l21.1,0L81.2,286.5z"/>
								</g>
								<g>
									<path id="c_197_" class="st0" d="M76.7,280.3l6.5-20l6.5,20H76.7z"/>
								</g>
								<g transform="rotate(72)">
									<path id="c_198_" class="st0" d="M81.2,274.1l21.1,0l-17,12.4L81.2,274.1z"/>
								</g>
								<g transform="rotate(144)">
									<path id="c_199_" class="st0" d="M88.5,276.5l6.5,20l-17-12.4L88.5,276.5z"/>
								</g>
							</g>
						</g>
						<g>
							<g id="b_40_">
								<g transform="rotate(216)">
									<path id="c_200_" class="st0" d="M170.4,284.1l-17,12.4l6.5-20L170.4,284.1z"/>
								</g>
								<g transform="rotate(288)">
									<path id="c_201_" class="st0" d="M163.1,286.5l-17-12.4l21.1,0L163.1,286.5z"/>
								</g>
								<g>
									<path id="c_202_" class="st0" d="M158.6,280.3l6.5-20l6.5,20H158.6z"/>
								</g>
								<g transform="rotate(72)">
									<path id="c_203_" class="st0" d="M163.1,274.1l21.1,0l-17,12.4L163.1,274.1z"/>
								</g>
								<g transform="rotate(144)">
									<path id="c_204_" class="st0" d="M170.4,276.5l6.5,20l-17-12.4L170.4,276.5z"/>
								</g>
							</g>
						</g>
						<g>
							<g id="b_41_">
								<g transform="rotate(216)">
									<path id="c_205_" class="st0" d="M252.3,284.1l-17,12.4l6.5-20L252.3,284.1z"/>
								</g>
								<g transform="rotate(288)">
									<path id="c_206_" class="st0" d="M245,286.5l-17-12.4l21.1,0L245,286.5z"/>
								</g>
								<g>
									<path id="c_207_" class="st0" d="M240.5,280.3l6.5-20l6.5,20H240.5z"/>
								</g>
								<g transform="rotate(72)">
									<path id="c_208_" class="st0" d="M245,274.1l21.1,0l-17,12.4L245,274.1z"/>
								</g>
								<g transform="rotate(144)">
									<path id="c_209_" class="st0" d="M252.3,276.5l6.5,20l-17-12.4L252.3,276.5z"/>
								</g>
							</g>
						</g>
						<g>
							<g id="b_42_">
								<g transform="rotate(216)">
									<path id="c_210_" class="st0" d="M334.2,284.1l-17,12.4l6.5-20L334.2,284.1z"/>
								</g>
								<g transform="rotate(288)">
									<path id="c_211_" class="st0" d="M326.9,286.5l-17-12.4l21.1,0L326.9,286.5z"/>
								</g>
								<g>
									<path id="c_212_" class="st0" d="M322.4,280.3l6.5-20l6.5,20H322.4z"/>
								</g>
								<g transform="rotate(72)">
									<path id="c_213_" class="st0" d="M326.9,274.1l21.1,0l-17,12.4L326.9,274.1z"/>
								</g>
								<g transform="rotate(144)">
									<path id="c_214_" class="st0" d="M334.2,276.5l6.5,20l-17-12.4L334.2,276.5z"/>
								</g>
							</g>
						</g>
						<g>
							<g id="b_43_">
								<g transform="rotate(216)">
									<path id="c_215_" class="st0" d="M416.1,284.1l-17,12.4l6.5-20L416.1,284.1z"/>
								</g>
								<g transform="rotate(288)">
									<path id="c_216_" class="st0" d="M408.8,286.5l-17-12.4l21.1,0L408.8,286.5z"/>
								</g>
								<g>
									<path id="c_217_" class="st0" d="M404.3,280.3l6.5-20l6.5,20H404.3z"/>
								</g>
								<g transform="rotate(72)">
									<path id="c_218_" class="st0" d="M408.8,274.1l21.1,0l-17,12.4L408.8,274.1z"/>
								</g>
								<g transform="rotate(144)">
									<path id="c_219_" class="st0" d="M416.1,276.5l6.5,20l-17-12.4L416.1,276.5z"/>
								</g>
							</g>
						</g>
					</g>
				</g>
			</g>
		</g>
		<g>
			<g id="d_4_">
				<g>
					<g id="e_8_">
						<g>
							<g id="b_44_">
								<g transform="rotate(216)">
									<path id="c_220_" class="st0" d="M47.5,319.2l-17,12.4l6.5-20L47.5,319.2z"/>
								</g>
								<g transform="rotate(288)">
									<path id="c_221_" class="st0" d="M40.2,321.6l-17-12.4h21.1L40.2,321.6z"/>
								</g>
								<g>
									<path id="c_222_" class="st0" d="M35.7,315.4l6.5-20l6.5,20H35.7z"/>
								</g>
								<g transform="rotate(72)">
									<path id="c_223_" class="st0" d="M40.2,309.2h21.1l-17,12.4L40.2,309.2z"/>
								</g>
								<g transform="rotate(144)">
									<path id="c_224_" class="st0" d="M47.5,311.6l6.5,20l-17-12.4L47.5,311.6z"/>
								</g>
							</g>
						</g>
						<g>
							<g id="b_45_">
								<g transform="rotate(216)">
									<path id="c_225_" class="st0" d="M129.4,319.2l-17,12.4l6.5-20L129.4,319.2z"/>
								</g>
								<g transform="rotate(288)">
									<path id="c_226_" class="st0" d="M122.1,321.6l-17-12.4h21.1L122.1,321.6z"/>
								</g>
								<g>
									<path id="c_227_" class="st0" d="M117.6,315.4l6.5-20l6.5,20H117.6z"/>
								</g>
								<g transform="rotate(72)">
									<path id="c_228_" class="st0" d="M122.1,309.2h21.1l-17,12.4L122.1,309.2z"/>
								</g>
								<g transform="rotate(144)">
									<path id="c_229_" class="st0" d="M129.4,311.6l6.5,20l-17-12.4L129.4,311.6z"/>
								</g>
							</g>
						</g>
						<g>
							<g id="b_46_">
								<g transform="rotate(216)">
									<path id="c_230_" class="st0" d="M211.3,319.2l-17,12.4l6.5-20L211.3,319.2z"/>
								</g>
								<g transform="rotate(288)">
									<path id="c_231_" class="st0" d="M204,321.6l-17-12.4h21.1L204,321.6z"/>
								</g>
								<g>
									<path id="c_232_" class="st0" d="M199.5,315.4l6.5-20l6.5,20H199.5z"/>
								</g>
								<g transform="rotate(72)">
									<path id="c_233_" class="st0" d="M204,309.2h21.1l-17,12.4L204,309.2z"/>
								</g>
								<g transform="rotate(144)">
									<path id="c_234_" class="st0" d="M211.3,311.6l6.5,20l-17-12.4L211.3,311.6z"/>
								</g>
							</g>
						</g>
						<g>
							<g id="b_47_">
								<g transform="rotate(216)">
									<path id="c_235_" class="st0" d="M293.2,319.2l-17,12.4l6.5-20L293.2,319.2z"/>
								</g>
								<g transform="rotate(288)">
									<path id="c_236_" class="st0" d="M285.9,321.6l-17-12.4H290L285.9,321.6z"/>
								</g>
								<g>
									<path id="c_237_" class="st0" d="M281.4,315.4l6.5-20l6.5,20H281.4z"/>
								</g>
								<g transform="rotate(72)">
									<path id="c_238_" class="st0" d="M285.9,309.2H307l-17,12.4L285.9,309.2z"/>
								</g>
								<g transform="rotate(144)">
									<path id="c_239_" class="st0" d="M293.2,311.6l6.5,20l-17-12.4L293.2,311.6z"/>
								</g>
							</g>
						</g>
						<g>
							<g id="b_48_">
								<g transform="rotate(216)">
									<path id="c_240_" class="st0" d="M375.1,319.2l-17,12.4l6.5-20L375.1,319.2z"/>
								</g>
								<g transform="rotate(288)">
									<path id="c_241_" class="st0" d="M367.8,321.6l-17-12.4h21.1L367.8,321.6z"/>
								</g>
								<g>
									<path id="c_242_" class="st0" d="M363.3,315.4l6.5-20l6.5,20H363.3z"/>
								</g>
								<g transform="rotate(72)">
									<path id="c_243_" class="st0" d="M367.8,309.2h21.1l-17,12.4L367.8,309.2z"/>
								</g>
								<g transform="rotate(144)">
									<path id="c_244_" class="st0" d="M375.1,311.6l6.5,20l-17-12.4L375.1,311.6z"/>
								</g>
							</g>
						</g>
					</g>
				</g>
				<g>
					<g id="b_49_">
						<g transform="rotate(216)">
							<path id="c_245_" class="st0" d="M457,319.2l-17,12.4l6.5-20L457,319.2z"/>
						</g>
						<g transform="rotate(288)">
							<path id="c_246_" class="st0" d="M449.7,321.6l-17-12.4h21.1L449.7,321.6z"/>
						</g>
						<g>
							<path id="c_247_" class="st0" d="M445.2,315.4l6.5-20l6.5,20H445.2z"/>
						</g>
						<g transform="rotate(72)">
							<path id="c_248_" class="st0" d="M449.7,309.2h21.1l-17,12.4L449.7,309.2z"/>
						</g>
						<g transform="rotate(144)">
							<path id="c_249_" class="st0" d="M457,311.6l6.5,20l-17-12.4L457,311.6z"/>
						</g>
					</g>
				</g>
			</g>
		</g>
	</g>
</g>
<g transform="matrix(1.0539 0 0 1.0539 4.3653e-16 .99962)">
	<path class="st3" d="M0,407.9h1171.8v207.9H0V407.9z"/>
	<path class="st4" d="M0,200.1h1171.8v207.9H0V200.1z"/>
	<path class="st5" d="M0-7.8h1171.8v207.9H0V-7.8z"/>
</g>
</svg>
